<svg preserveAspectRatio="none" width="100%" height="100%" overflow="visible" style="display: block;" viewBox="0 0 20 20" fill="none" xmlns="http://www.w3.org/2000/svg">
<g id="Icon">
<path id="Vector" d="M4.16667 4.16665C4.16658 3.8734 4.24387 3.58531 4.39074 3.33148C4.5376 3.07765 4.74884 2.86706 5.00313 2.72098C5.25741 2.5749 5.54574 2.49851 5.83899 2.4995C6.13225 2.5005 6.42005 2.57885 6.67333 2.72665L16.6708 8.55832C16.9231 8.70472 17.1326 8.91477 17.2783 9.16749C17.424 9.42021 17.5008 9.70673 17.501 9.99843C17.5013 10.2901 17.425 10.5768 17.2797 10.8298C17.1345 11.0827 16.9254 11.2931 16.6733 11.44L6.67333 17.2733C6.42005 17.4211 6.13225 17.4995 5.83899 17.5005C5.54574 17.5015 5.25741 17.4251 5.00313 17.279C4.74884 17.1329 4.5376 16.9223 4.39074 16.6685C4.24387 16.4147 4.16658 16.1266 4.16667 15.8333V4.16665Z" stroke="var(--stroke-0, black)" stroke-width="1.66667" stroke-linecap="round" stroke-linejoin="round"/>
</g>
</svg>
